HIERARCHY
ROOT hip
{
  OFFSET 0 0 0
  CHANNELS 6 Xposition Yposition Zposition Zrotation Yrotation Xrotation
  JOINT abdomen
  {
    OFFSET 0 20.6881 -0.73152
    CHANNELS 3 Zrotation Xrotation Yrotation
    JOINT chest
    {
      OFFSET 0 11.7043 -0.48768
      CHANNELS 3 Zrotation Xrotation Yrotation
      JOINT neck
      {
        OFFSET 0 22.1894 -2.19456
        CHANNELS 3 Zrotation Xrotation Yrotation
        JOINT head
        {
          OFFSET -0.24384 7.07133 1.2192
          CHANNELS 3 Zrotation Xrotation Yrotation
          JOINT leftEye
          {
            OFFSET 4.14528 8.04674 8.04672
            CHANNELS 3 Zrotation Xrotation Yrotation
            End Site
            {
              OFFSET 1 0 0
            }
          }
          JOINT rightEye
          {
            OFFSET -3.6576 8.04674 8.04672
            CHANNELS 3 Zrotation Xrotation Yrotation
            End Site
            {
              OFFSET 1 0 0
            }
          }
        }
      }
      JOINT rCollar
      {
        OFFSET -2.68224 19.2634 -4.8768
        CHANNELS 3 Zrotation Xrotation Yrotation
        JOINT rShldr
        {
          OFFSET -8.77824 -1.95073 1.46304
          CHANNELS 3 Zrotation Xrotation Yrotation
          JOINT rForeArm
          {
            OFFSET -28.1742 -1.7115 0.48768
            CHANNELS 3 Zrotation Xrotation Yrotation
            JOINT rHand
            {
              OFFSET -22.5879 0.773209 7.07136
              CHANNELS 3 Zrotation Xrotation Yrotation
              JOINT rThumb1
              {
                OFFSET -1.2192 -0.487915 3.41376
                CHANNELS 3 Zrotation Xrotation Yrotation
                JOINT rThumb2
                {
                  OFFSET -3.37035 -0.52449 3.41376
                  CHANNELS 3 Zrotation Xrotation Yrotation
                  End Site
                  {
                    OFFSET -1.78271 -1.18214 1.43049
                  }
                }
              }
              JOINT rIndex1
              {
                OFFSET -7.75947 0.938293 5.60832
                CHANNELS 3 Zrotation Xrotation Yrotation
                JOINT rIndex2
                {
                  OFFSET -2.54057 -0.884171 1.56538
                  CHANNELS 3 Zrotation Xrotation Yrotation
                  End Site
                  {
                    OFFSET -1.62519 -0.234802 1.16502
                  }
                }
              }
              JOINT rMid1
              {
                OFFSET -8.24714 1.18213 3.41376
                CHANNELS 3 Zrotation Xrotation Yrotation
                JOINT rMid2
                {
                  OFFSET -3.10165 -0.590103 1.0647
                  CHANNELS 3 Zrotation Xrotation Yrotation
                  End Site
                  {
                    OFFSET -2.48547 -0.328903 0.83742
                  }
                }
              }
              JOINT rRing1
              {
                OFFSET -8.82822 0.546677 1.51678
                CHANNELS 3 Zrotation Xrotation Yrotation
                JOINT rRing2
                {
                  OFFSET -2.60934 -0.819778 -0.0198488
                  CHANNELS 3 Zrotation Xrotation Yrotation
                  End Site
                  {
                    OFFSET -2.33842 -0.294052 0.168128
                  }
                }
              }
              JOINT rPinky1
              {
                OFFSET -8.27202 -0.0477905 -0.4584
                CHANNELS 3 Zrotation Xrotation Yrotation
                JOINT rPinky2
                {
                  OFFSET -1.82734 -0.647385 -0.700984
                  CHANNELS 3 Zrotation Xrotation Yrotation
                  End Site
                  {
                    OFFSET -1.69225 -0.51767 -0.607171
                  }
                }
              }
            }
          }
        }
      }
      JOINT lCollar
      {
        OFFSET 2.68224 19.2634 -4.8768
        CHANNELS 3 Zrotation Xrotation Yrotation
        JOINT lShldr
        {
          OFFSET 8.77824 -1.95073 1.46304
          CHANNELS 3 Zrotation Xrotation Yrotation
          JOINT lForeArm
          {
            OFFSET 28.1742 -1.7115 0.48768
            CHANNELS 3 Zrotation Xrotation Yrotation
            JOINT lHand
            {
              OFFSET 22.5879 0.773209 7.07136
              CHANNELS 3 Zrotation Xrotation Yrotation
              JOINT lThumb1
              {
                OFFSET 1.2192 -0.487915 3.41376
                CHANNELS 3 Zrotation Xrotation Yrotation
                JOINT lThumb2
                {
                  OFFSET 3.37035 -0.52449 3.41376
                  CHANNELS 3 Zrotation Xrotation Yrotation
                  End Site
                  {
                    OFFSET 1.78271 -1.18214 1.43049
                  }
                }
              }
              JOINT lIndex1
              {
                OFFSET 7.75947 0.938293 5.60832
                CHANNELS 3 Zrotation Xrotation Yrotation
                JOINT lIndex2
                {
                  OFFSET 2.54057 -0.884171 1.56538
                  CHANNELS 3 Zrotation Xrotation Yrotation
                  End Site
                  {
                    OFFSET 1.62519 -0.234802 1.16502
                  }
                }
              }
              JOINT lMid1
              {
                OFFSET 8.24714 1.18213 3.41376
                CHANNELS 3 Zrotation Xrotation Yrotation
                JOINT lMid2
                {
                  OFFSET 3.10165 -0.590103 1.0647
                  CHANNELS 3 Zrotation Xrotation Yrotation
                  End Site
                  {
                    OFFSET 2.48547 -0.328903 0.83742
                  }
                }
              }
              JOINT lRing1
              {
                OFFSET 8.82822 0.546677 1.51678
                CHANNELS 3 Zrotation Xrotation Yrotation
                JOINT lRing2
                {
                  OFFSET 2.60934 -0.819778 -0.0198488
                  CHANNELS 3 Zrotation Xrotation Yrotation
                  End Site
                  {
                    OFFSET 2.33842 -0.294052 0.168128
                  }
                }
              }
              JOINT lPinky1
              {
                OFFSET 8.27202 -0.0477905 -0.4584
                CHANNELS 3 Zrotation Xrotation Yrotation
                JOINT lPinky2
                {
                  OFFSET 1.82734 -0.647385 -0.700984
                  CHANNELS 3 Zrotation Xrotation Yrotation
                  End Site
                  {
                    OFFSET 1.69225 -0.51767 -0.607171
                  }
                }
              }
            }
          }
        }
      }
    }
  }
  JOINT rButtock
  {
    OFFSET -8.77824 4.35084 1.2192
    CHANNELS 3 Zrotation Xrotation Yrotation
    JOINT rThigh
    {
      OFFSET 0 -1.70687 -2.19456
      CHANNELS 3 Zrotation Xrotation Yrotation
      JOINT rShin
      {
        OFFSET 0 -36.8199 0.73152
        CHANNELS 3 Zrotation Xrotation Yrotation
        JOINT rFoot
        {
          OFFSET 0.73152 -45.1104 -5.12064
          CHANNELS 3 Zrotation Xrotation Yrotation
          End Site
          {
            OFFSET -1.1221 -3.69964 12.103
          }
        }
      }
    }
  }
  JOINT lButtock
  {
    OFFSET 8.77824 4.35084 1.2192
    CHANNELS 3 Zrotation Xrotation Yrotation
    JOINT lThigh
    {
      OFFSET 0 -1.70687 -2.19456
      CHANNELS 3 Zrotation Xrotation Yrotation
      JOINT lShin
      {
        OFFSET 0 -36.8199 0.73152
        CHANNELS 3 Zrotation Xrotation Yrotation
        JOINT lFoot
        {
          OFFSET -0.73152 -45.1104 -5.12064
          CHANNELS 3 Zrotation Xrotation Yrotation
          End Site
          {
            OFFSET 1.1221 -3.69964 12.103
          }
        }
      }
    }
  }
}
MOTION
Frames:	4
Frame Time:	0.00833333
225.661 85.1237 26.6304 0.0 0.0 0.0 0.435971 -0.0238512 0.01282 0.121274 -0.0396248 0.0210492 -1.23878e-15 -7.95139e-16 -1.2424e-16 -3.57502e-15 3.18055e-15 -4.16205e-16 -0.0 0.0 0.0 -0.0 0.0 0.0 -6.4718e-16 3.76604e-17 0.0 -9.5935e-15 1.17407e-15 -1.98785e-16 -2.11954e-13 1.0953e-13 -3.81667e-14 -2.50056e-12 1.55971e-13 -2.54444e-13 -5.88389e-12 5.73394e-13 -6.3293e-13 -1.01611e-11 9.85972e-13 -1.10127e-12 -5.87806e-12 5.75283e-13 -6.36111e-13 7.73091 5.47488 0.417314 -5.88368e-12 5.73891e-13 -6.36111e-13 2.90554 0.965183 0.102902 -5.87361e-12 5.7419e-13 -6.34521e-13 10.2786 0.731801 0.0259123 -5.88303e-12 5.71705e-13 -6.2975e-13 2.22167 -0.733487 -0.20892 -5.45567e-16 3.80486e-17 -9.93923e-17 -1.58572e-14 1.26104e-15 -2.5842e-15 -2.26366e-13 -2.18663e-14 0.0 -2.48772e-12 2.8866e-13 -3.02153e-13 -5.88522e-12 5.76239e-13 -6.39292e-13 -1.01619e-11 9.95514e-13 -1.08536e-12 -5.89357e-12 5.77668e-13 -6.3293e-13 -7.73091 5.47488 -0.417314 -5.88611e-12 5.76376e-13 -6.42472e-13 -2.90554 0.965183 -0.102902 -5.89234e-12 5.76774e-13 -6.33725e-13 -10.2786 0.731801 -0.0259123 -5.88244e-12 5.78066e-13 -6.39292e-13 -2.22167 -0.733487 0.20892 -2.03217e-16 0.0 -3.88251e-19 0.651983 -4.71109 -0.0694769 -0.000844045 2.99807 0.0038192 -0.326377 1.72324 0.0697874 2.03217e-16 0.0 3.88251e-19 0.0331429 -2.68025 0.02316 0.00579496 -0.679754 0.0505419 0.296156 3.3702 -0.0966793
217.115 84.0129 16.1318 -153.576 -83.7663 163.38 1.62314 -0.186086 0.62534 0.230054 -3.77711 0.181367 -0.283269 -1.40635 -1.2224 -1.3561 3.57667 -2.43626 -0.0 0.0 0.0 -0.0 0.0 0.0 -2.03001e-14 -4.06863e-13 8.01424e-14 18.9378 10.9707 -3.62792 -5.46132 -2.79171 8.16622 0.0023516 -1.1427 -0.160511 -3.05228e-10 -1.91576e-10 6.317e-10 -5.2759e-10 -3.31782e-10 1.0923e-09 -3.05223e-10 -1.91576e-10 6.31697e-10 7.73091 5.47488 0.417314 -3.05228e-10 -1.91577e-10 6.31699e-10 2.90554 0.965183 0.102902 -3.05219e-10 -1.91577e-10 6.31701e-10 10.2786 0.731801 0.0259123 -3.05229e-10 -1.91578e-10 6.31708e-10 2.22167 -0.733487 -0.20892 -2.02323e-14 -4.06865e-13 8.00023e-14 -20.159 1.20972 3.66931 5.14636 -2.55764 -7.78673 -0.0352377 -4.17898 0.581753 -5.80846e-10 1.05214e-09 -7.17715e-11 -1.00708e-09 1.81636e-09 -1.28518e-10 -5.80854e-10 1.05214e-09 -7.17653e-11 -7.73091 5.47488 -0.417314 -5.80847e-10 1.05214e-09 -7.17715e-11 -2.90554 0.965183 -0.102902 -5.80854e-10 1.05214e-09 -7.17663e-11 -10.2786 0.731801 -0.0259123 -5.80843e-10 1.05214e-09 -7.17723e-11 -2.22167 -0.733487 0.20892 -2.03217e-16 0.0 -3.88251e-19 4.82268 -5.39266 7.81744 -0.0104314 3.16562 -0.120707 0.255807 -4.47205 -8.194 2.03217e-16 0.0 3.88251e-19 -1.41779 -2.92657 -7.78927 0.00659931 -1.29142 0.0651522 0.463411 -2.10471 7.59958
217.159 84.0007 16.1332 -153.957 -83.7423 163.736 2.88371 -0.356521 1.27523 0.369944 -7.72757 0.35424 -0.641163 -2.89753 -2.51658 -2.47997 7.36434 -5.04333 -0.0 0.0 0.0 -0.0 0.0 0.0 -4.09768e-14 -9.02755e-13 1.70362e-13 40.5734 22.4006 -7.92963 -10.3754 -5.55136 16.8562 -0.00227617 -2.30617 -0.324171 -6.59633e-10 -4.10522e-10 1.35803e-09 -1.14022e-09 -7.10918e-10 2.34818e-09 -6.59628e-10 -4.10524e-10 1.35803e-09 7.73091 5.47488 0.417314 -6.59632e-10 -4.10525e-10 1.35804e-09 2.90554 0.965183 0.102902 -6.59624e-10 -4.10526e-10 1.35804e-09 10.2786 0.731801 0.0259123 -6.59636e-10 -4.10525e-10 1.35805e-09 2.22167 -0.733487 -0.20892 -4.09438e-14 -9.02758e-13 1.70178e-13 -41.6388 2.4096 7.54069 9.81806 -5.08722 -16.0389 0.0207047 -8.55696 1.20179 -1.24293e-09 2.2633e-09 -1.49711e-10 -2.15509e-09 3.90718e-09 -2.68463e-10 -1.24294e-09 2.2633e-09 -1.49705e-10 -7.73091 5.47488 -0.417314 -1.24293e-09 2.26331e-09 -1.49708e-10 -2.90554 0.965183 -0.102902 -1.24294e-09 2.2633e-09 -1.49706e-10 -10.2786 0.731801 -0.0259123 -1.24293e-09 2.2633e-09 -1.49713e-10 -2.22167 -0.733487 0.20892 -2.03217e-16 0.0 -3.88251e-19 9.43892 -5.96174 16.1703 -0.0196362 3.34555 -0.251104 -1.05955 -10.5881 -17.1938 2.03217e-16 0.0 3.88251e-19 -3.02278 -3.09303 -16.0564 0.00778049 -1.94891 0.0811686 2.23807 -7.6825 15.8384
217.186 83.9925 16.1276 -153.918 -83.7195 163.655 4.00787 -0.510321 1.85044 0.511438 -11.2517 0.510636 -1.03011 -4.21135 -3.67602 -3.14498 10.6518 -7.42314 -0.0 0.0 0.0 -0.0 0.0 0.0 -5.96061e-14 -1.22067e-12 2.40427e-13 61.5987 32.3345 -12.6754 -14.0595 -7.69603 24.7066 -0.0121815 -3.428 -0.482299 -9.03917e-10 -5.75875e-10 1.89636e-09 -1.56245e-09 -9.97317e-10 3.27912e-09 -9.03913e-10 -5.7588e-10 1.89636e-09 7.73091 5.47488 0.417314 -9.03916e-10 -5.7588e-10 1.89637e-09 2.90554 0.965183 0.102902 -9.03908e-10 -5.75881e-10 1.89637e-09 10.2786 0.731801 0.0259123 -9.03922e-10 -5.75879e-10 1.89638e-09 2.22167 -0.733487 -0.20892 -5.96057e-14 -1.22067e-12 2.40206e-13 -60.9394 3.56965 11.0271 13.4044 -7.10728 -23.5283 0.15412 -12.5317 1.78311 -1.73077e-09 3.15527e-09 -2.14036e-10 -3.00092e-09 5.44708e-09 -3.83384e-10 -1.73077e-09 3.15526e-09 -2.1403e-10 -7.73091 5.47488 -0.417314 -1.73077e-09 3.15528e-09 -2.1403e-10 -2.90554 0.965183 -0.102902 -1.73078e-09 3.15527e-09 -2.14032e-10 -10.2786 0.731801 -0.0259123 -1.73076e-09 3.15527e-09 -2.14038e-10 -2.22167 -0.733487 0.20892 -2.03217e-16 0.0 -3.88251e-19 13.6987 -6.33201 23.6393 -0.0274171 3.50068 -0.369886 -3.92006 -15.4111 -25.6306 2.03217e-16 0.0 3.88251e-19 -4.5079 -3.21298 -23.4224 0.00914498 -2.51474 0.094421 5.16166 -12.054 23.5251
